<svg width="37" height="35" viewBox="0 0 37 35" fill="none" xmlns="http://www.w3.org/2000/svg">
<path d="M34.8308 13.1835C34.2712 11.4815 33.0591 10.0712 31.4606 9.26208C29.8621 8.45298 28.0079 8.31122 26.305 8.86793C25.6971 9.04019 25.12 9.30656 24.5946 9.65736C24.7647 9.04899 24.8531 8.42073 24.8577 7.78905C24.8577 5.98848 24.1424 4.26166 22.8692 2.98847C21.5961 1.71527 19.8692 1 18.0687 1C16.2681 1 14.5413 1.71527 13.2681 2.98847C11.9949 4.26166 11.2796 5.98848 11.2796 7.78905C11.2842 8.42073 11.3727 9.04899 11.5428 9.65736C11.019 9.29732 10.4418 9.02204 9.83233 8.84162C8.99089 8.5669 8.10357 8.4606 7.22105 8.5288C6.33852 8.59699 5.47807 8.83835 4.68882 9.23908C3.89957 9.63982 3.19698 10.1921 2.62116 10.8643C2.04535 11.5366 1.60758 12.3157 1.33286 13.1571C1.05814 13.9986 0.951839 14.8859 1.02004 15.7684C1.08823 16.651 1.32959 17.5114 1.73032 18.3007C2.13105 19.0899 2.68332 19.7925 3.35558 20.3683C4.02784 20.9441 4.80694 21.3819 5.64838 21.6566C6.26471 21.8386 6.90096 21.9446 7.543 21.9724C7.05256 22.3657 6.61086 22.8163 6.22729 23.3144C5.70339 24.0277 5.32634 24.8379 5.11804 25.698C4.90974 26.5581 4.87433 27.451 5.01386 28.325C5.1534 29.1989 5.4651 30.0364 5.93088 30.7889C6.39666 31.5414 7.00724 32.1939 7.7272 32.7086C9.18207 33.7599 10.993 34.1949 12.7666 33.919C14.5403 33.6431 16.1335 32.6786 17.2003 31.235C17.5705 30.719 17.863 30.1516 18.0687 29.5509C18.2825 30.1532 18.5839 30.7206 18.9633 31.235C20.0301 32.6786 21.6233 33.6431 23.397 33.919C25.1707 34.1949 26.9816 33.7599 28.4364 32.7086C29.1564 32.1939 29.767 31.5414 30.2328 30.7889C30.6985 30.0364 31.0102 29.1989 31.1498 28.325C31.2893 27.451 31.2539 26.5581 31.0456 25.698C30.8373 24.8379 30.4603 24.0277 29.9364 23.3144C29.5528 22.8163 29.1111 22.3657 28.6206 21.9724C29.2538 21.9425 29.8811 21.8365 30.4889 21.6566C31.3321 21.3879 32.1137 20.955 32.7889 20.383C33.464 19.8109 34.0194 19.111 34.4229 18.3235C34.8265 17.5359 35.0703 16.6763 35.1403 15.7942C35.2103 14.9121 35.1051 14.0248 34.8308 13.1835Z" fill="#D7AFCE" stroke="#D7AFCE" stroke-width="2" stroke-linecap="round" stroke-linejoin="round"/>
<path d="M25.3589 10.3953C25.3653 10.3935 25.3717 10.3915 25.378 10.3895C26.7475 9.94144 28.2386 10.0555 29.5242 10.7067C30.8095 11.3577 31.7843 12.4925 32.2345 13.8621C32.4549 14.5386 32.5394 15.2521 32.4831 15.9614C32.4268 16.671 32.2309 17.3623 31.9065 17.9958C31.5822 18.6292 31.1358 19.1921 30.5932 19.6522C30.0519 20.1111 29.4255 20.4586 28.7498 20.6749C28.2561 20.8206 27.7467 20.9066 27.2325 20.9308C27.0249 20.9406 26.8449 21.0779 26.7806 21.2756C26.7163 21.4733 26.781 21.6901 26.9431 21.8202C27.3413 22.1398 27.7 22.5056 28.0118 22.91C28.431 23.4824 28.7328 24.1322 28.8997 24.8219C29.067 25.5135 29.0955 26.2314 28.9834 26.9341C28.8713 27.6367 28.6208 28.3101 28.2466 28.9151C27.8724 29.5201 27.3818 30.0447 26.8034 30.4584L26.8013 30.4599C25.6304 31.3067 24.173 31.6569 22.7457 31.4348C21.3184 31.2126 20.0362 30.436 19.1776 29.2734C18.8736 28.861 18.632 28.406 18.4607 27.923C18.3896 27.7225 18.1994 27.589 17.9867 27.5902C17.7739 27.5914 17.5852 27.727 17.5164 27.9283C17.352 28.409 17.1182 28.863 16.8226 29.2759C15.964 30.4371 14.6827 31.2127 13.2564 31.4348C11.829 31.6569 10.3716 31.3067 9.20073 30.4599L9.19864 30.4584C8.62024 30.0447 8.12969 29.5201 7.75546 28.9151C7.38123 28.3101 7.13079 27.6367 7.01868 26.9341C6.90657 26.2314 6.93502 25.5135 7.10238 24.8219C7.26931 24.1322 7.57109 23.4824 7.99028 22.91C8.30203 22.5056 8.66078 22.1398 9.05894 21.8202C9.22134 21.6899 9.28596 21.4725 9.22114 21.2746C9.15631 21.0767 8.97563 20.9397 8.76758 20.9307C8.24681 20.9082 7.73072 20.8224 7.23065 20.6753C6.55675 20.4541 5.93274 20.1027 5.39403 19.641C4.85352 19.1777 4.40947 18.6124 4.08725 17.9774C3.76502 17.3423 3.57095 16.65 3.51611 15.9398C3.46127 15.2297 3.54675 14.5157 3.76765 13.8386C3.98855 13.1616 4.34055 12.5347 4.80354 11.9938C5.26652 11.4529 5.83142 11.0086 6.46596 10.6862C7.10051 10.3638 7.79228 10.1696 8.50179 10.1147C9.2113 10.0599 9.92467 10.1454 10.6012 10.3664L10.6011 10.3666L10.6144 10.3705C11.0992 10.5142 11.5584 10.7333 11.9751 11.0199C12.1485 11.1392 12.378 11.1371 12.5492 11.0148C12.7204 10.8925 12.7967 10.6761 12.7401 10.4734C12.6028 9.98205 12.5313 9.47459 12.5274 8.96436C12.5279 7.51518 13.1034 6.12553 14.1273 5.10087C15.1517 4.07581 16.541 3.5 17.9895 3.5C19.438 3.5 20.8273 4.07581 21.8516 5.10087C22.8756 6.12553 23.4511 7.51518 23.4515 8.96436C23.4477 9.47459 23.3762 9.98205 23.2389 10.4734C23.1826 10.6749 23.2577 10.8901 23.427 11.0128C23.5964 11.1356 23.8243 11.1399 23.9982 11.0237C24.4162 10.7445 24.8754 10.5324 25.3589 10.3953Z" stroke="white" stroke-linecap="round" stroke-linejoin="round"/>
<path d="M16.6181 20.8152L19.8655 17.7131L23.1129 14.611C23.2661 14.4646 23.4483 14.3914 23.6593 14.3914C23.8703 14.3914 24.0521 14.4646 24.2049 14.611C24.3582 14.7574 24.4348 14.9314 24.4348 15.1329C24.4348 15.3345 24.3582 15.5082 24.2049 15.6542L17.1545 22.3891C17.0012 22.5355 16.8224 22.6087 16.6181 22.6087C16.4137 22.6087 16.2349 22.5355 16.0816 22.3891L12.7863 19.2413C12.633 19.0949 12.5595 18.9209 12.5656 18.7193C12.5717 18.5177 12.6517 18.344 12.8055 18.1981C12.9587 18.0517 13.1409 17.9785 13.3519 17.9785C13.5629 17.9785 13.7448 18.0517 13.8975 18.1981L16.6181 20.8152Z" fill="white"/>
</svg>
