<svg width="29" height="30" viewBox="0 0 29 30" fill="none" xmlns="http://www.w3.org/2000/svg">
<path id="Vector" d="M18.597 16.5116C18.7606 16.5116 19.3742 16.7959 20.4378 17.3643C21.5014 17.9328 22.0647 18.2752 22.1276 18.3915C22.1528 18.4561 22.1654 18.553 22.1654 18.6822C22.1654 19.1085 22.0584 19.5995 21.8444 20.155C21.643 20.6589 21.1962 21.082 20.5039 21.4244C19.8116 21.7668 19.1697 21.938 18.5781 21.938C17.8607 21.938 16.6649 21.5375 14.9909 20.7364C13.7574 20.155 12.6875 19.3928 11.7812 18.4496C10.875 17.5065 9.94358 16.3114 8.98698 14.8643C8.08073 13.4819 7.6339 12.2287 7.64648 11.1047V10.9496C7.68425 9.7739 8.14996 8.75323 9.04362 7.8876C9.3457 7.60336 9.67296 7.46124 10.0254 7.46124C10.1009 7.46124 10.2142 7.47093 10.3652 7.49031C10.5163 7.50969 10.6359 7.51938 10.724 7.51938C10.9631 7.51938 11.1299 7.56137 11.2243 7.64535C11.3187 7.72933 11.4162 7.90698 11.5169 8.17829C11.6176 8.43669 11.8253 9.00517 12.14 9.88372C12.4546 10.7623 12.612 11.2468 12.612 11.3372C12.612 11.6085 12.3949 11.98 11.9606 12.4516C11.5264 12.9231 11.3092 13.2235 11.3092 13.3527C11.3092 13.4432 11.3407 13.5401 11.4036 13.6434C11.8316 14.5866 12.4735 15.4716 13.3294 16.2985C14.0343 16.9832 14.9846 17.6357 16.1803 18.2558C16.3314 18.3463 16.4698 18.3915 16.5957 18.3915C16.7845 18.3915 17.1243 18.0782 17.6152 17.4515C18.1061 16.8249 18.4334 16.5116 18.597 16.5116ZM14.7643 26.7829C16.3628 26.7829 17.8953 26.4599 19.3617 25.814C20.828 25.168 22.0898 24.3023 23.1471 23.2171C24.2044 22.1318 25.0477 20.8366 25.6771 19.3314C26.3064 17.8262 26.6211 16.2532 26.6211 14.6124C26.6211 12.9716 26.3064 11.3986 25.6771 9.89341C25.0477 8.38824 24.2044 7.09302 23.1471 6.00775C22.0898 4.92248 20.828 4.05685 19.3617 3.41085C17.8953 2.76486 16.3628 2.44186 14.7643 2.44186C13.1658 2.44186 11.6334 2.76486 10.167 3.41085C8.70063 4.05685 7.4388 4.92248 6.38151 6.00775C5.32422 7.09302 4.4809 8.38824 3.85156 9.89341C3.22222 11.3986 2.90755 12.9716 2.90755 14.6124C2.90755 17.2351 3.66276 19.6124 5.17318 21.7442L3.68164 26.2597L8.25065 24.7674C10.2394 26.1111 12.4106 26.7829 14.7643 26.7829ZM14.7643 0C16.6901 0 18.5309 0.387597 20.2868 1.16279C22.0426 1.93798 23.5562 2.97804 24.8275 4.28295C26.0987 5.58786 27.112 7.14147 27.8672 8.9438C28.6224 10.7461 29 12.6357 29 14.6124C29 16.5891 28.6224 18.4787 27.8672 20.281C27.112 22.0833 26.0987 23.637 24.8275 24.9419C23.5562 26.2468 22.0426 27.2868 20.2868 28.062C18.5309 28.8372 16.6901 29.2248 14.7643 29.2248C12.3099 29.2248 10.0128 28.6176 7.87305 27.4031L0 30L2.56771 22.1512C1.20833 19.8514 0.528646 17.3385 0.528646 14.6124C0.528646 12.6357 0.90625 10.7461 1.66146 8.9438C2.41667 7.14147 3.4299 5.58786 4.70117 4.28295C5.97244 2.97804 7.486 1.93798 9.24186 1.16279C10.9977 0.387597 12.8385 0 14.7643 0Z" fill="#323232"/>
</svg>
