<svg width="30" height="30" viewBox="0 0 30 30" fill="none" xmlns="http://www.w3.org/2000/svg">
<g id="ri:customer-service-2-line">
<path id="Vector" d="M5.0775 10.0006H3.75C3.08696 10.0006 2.45107 10.264 1.98223 10.7328C1.51339 11.2017 1.25 11.8376 1.25 12.5006V17.5006C1.25 18.1637 1.51339 18.7995 1.98223 19.2684C2.45107 19.7372 3.08696 20.0006 3.75 20.0006H5.0775C5.38198 22.4173 6.55808 24.6398 8.38504 26.2509C10.212 27.862 12.5642 28.7508 15 28.7506V26.2506C13.0109 26.2506 11.1032 25.4604 9.6967 24.0539C8.29017 22.6474 7.5 20.7397 7.5 18.7506V11.2506C7.5 9.26149 8.29017 7.35383 9.6967 5.94731C11.1032 4.54078 13.0109 3.75061 15 3.75061C16.9891 3.75061 18.8968 4.54078 20.3033 5.94731C21.7098 7.35383 22.5 9.26149 22.5 11.2506V20.0006H26.25C26.913 20.0006 27.5489 19.7372 28.0178 19.2684C28.4866 18.7995 28.75 18.1637 28.75 17.5006V12.5006C28.75 11.8376 28.4866 11.2017 28.0178 10.7328C27.5489 10.264 26.913 10.0006 26.25 10.0006H24.9225C24.6175 7.58423 23.4412 5.3622 21.6143 3.75145C19.7874 2.14071 17.4356 1.25195 15 1.25195C12.5644 1.25195 10.2126 2.14071 8.38572 3.75145C6.55885 5.3622 5.38254 7.58423 5.0775 10.0006ZM26.25 12.5006V17.5006H25V12.5006H26.25ZM5 12.5006V17.5006H3.75V12.5006H5ZM20.3 19.7319L18.975 17.6119C17.7837 18.3583 16.4058 18.753 15 18.7506C13.5942 18.753 12.2163 18.3583 11.025 17.6119L9.7 19.7319C11.2883 20.7272 13.1255 21.2537 15 21.2506C16.8745 21.2537 18.7117 20.7272 20.3 19.7319Z" fill="#323232"/>
</g>
</svg>
