<svg width="86" height="89" viewBox="0 0 86 89" fill="none" xmlns="http://www.w3.org/2000/svg">
<path id="Vector" d="M68.0236 16.1861L66.4236 18.6776C66.1862 19.0435 60.9976 27.1972 59.2224 36.2687L55.9264 30.4953C59.98 26.8547 61.3199 19.755 58.7998 13.0812C55.8883 5.36229 48.126 1.57821 47.7938 1.42012L45.3614 0.257812L46.4271 2.85323C46.4342 2.8708 46.6349 3.39779 46.7946 4.30392C45.3593 3.27285 43.8686 2.32714 42.3297 1.47135L41.2852 0.912158L40.8951 2.08324C40.8598 2.1945 40.146 4.36833 39.5157 7.43365C39.2515 7.02038 39.0276 6.58103 38.8471 6.12203L37.9214 3.45195L36.9221 6.09422C36.7864 6.44994 33.6473 14.9242 36.5589 22.6446C36.6097 22.7807 36.6733 22.9081 36.7271 23.0413C36.5066 22.8408 36.2917 22.6373 36.0585 22.4441C29.8651 17.344 21.3608 18.2384 21.0032 18.2794L18.346 18.5795L20.5029 20.2497C20.517 20.2614 20.9452 20.6069 21.512 21.3037C18.5722 21.1105 16.4196 21.2452 16.3093 21.2539L15.1405 21.3315L15.3624 22.5524C15.3836 22.6666 15.8048 24.9238 16.7221 27.9072C16.2986 27.6909 15.8967 27.432 15.5221 27.1343L13.4487 25.3249L13.8444 28.1399C13.8896 28.4693 14.8931 35.1957 19.1375 40.3134C11.3865 39.3048 4.53447 44.6318 4.24756 44.8616L2.10628 46.5509L4.76344 46.8246C4.7804 46.8276 5.31324 46.8949 6.13866 47.1877C4.58891 48.0215 3.08554 48.9447 1.63563 49.9529L0.670288 50.6526L1.44482 51.5807C1.51832 51.67 2.96703 53.3827 5.19028 55.4555C4.72162 55.4984 4.24998 55.492 3.78255 55.4365L1.13105 54.9988L2.82569 57.2063C3.05325 57.5064 8.51879 64.5285 16.298 65.5752C20.7276 66.171 25.0497 65.0394 28.1648 62.4733C30.0093 60.9509 31.2785 58.982 31.8947 56.8169L37.5327 57.8519C32.1449 60.3785 28.8149 63.1906 26.9111 65.2092C25.7521 66.4374 25.2462 67.2499 25.2264 67.2835L24.36 68.6844L33.2996 67.061L31.5965 68.8747C31.5965 68.8747 51.6693 65.2751 63.5968 74.1329L61.0853 76.8118L66.2144 82.2808L68.2568 80.104C69.5429 83.6231 70.2821 88.0894 70.2821 88.0894L74.1944 83.9408L76.918 86.829L84.276 79.0281L81.5524 76.1413L85.4732 71.984C85.4732 71.984 81.2556 71.1715 77.9412 69.7838L79.9864 67.6027L74.8558 62.1337L72.34 64.814C64.0265 52.1004 67.4073 30.7046 67.4073 30.7046L66.1692 32.0265L68.0236 16.1861ZM42.4682 4.0375C44.017 4.96957 45.5147 5.98998 46.9543 7.09403C46.8836 8.61645 46.5458 10.4712 45.6653 12.5352C43.6922 11.7023 42.252 10.619 41.216 9.57967C41.6145 7.25799 42.1262 5.24518 42.4682 4.0375ZM48.9302 4.57766C51.2905 6.13521 55.1392 9.25323 56.8889 13.8922C59.4669 20.7299 57.5179 28.0301 52.547 30.1659C52.3481 30.2515 52.1436 30.3224 51.935 30.3782L51.9336 30.3796C49.2199 31.1321 45.8123 29.7385 44.1826 27.2089C42.447 24.5169 42.9078 20.9641 45.483 17.202C49.063 11.9555 49.2751 7.31947 48.9302 4.57766ZM50.6192 32.9809L53.1322 39.3999C51.8347 37.5174 50.7464 35.307 49.8348 33.079C50.0991 33.06 50.3577 33.0175 50.6192 32.9809ZM38.4726 21.8292C36.7256 17.1991 37.4776 12.0887 38.1659 9.20931C39.3008 10.8503 41.3319 13.0007 44.707 14.4777C44.437 14.9506 44.1431 15.4292 43.8081 15.9182C40.2421 21.1368 40.8244 25.0351 41.8817 27.3436C40.3976 25.7626 39.2379 23.8868 38.4726 21.8292ZM43.6357 31.4849C43.9183 35.3421 44.9657 39.8742 47.5846 44.5644L41.4619 40.0792C42.847 37.0373 42.7777 33.3601 41.4435 29.8775C42.1389 30.485 42.8668 31.034 43.6357 31.4849ZM50.4029 48.4012L48.1373 50.8034L39.6075 42.9278C39.8068 42.698 40.0075 42.4726 40.187 42.2267L40.3425 41.9895C40.3722 41.95 40.4089 41.9119 40.4386 41.8739C40.5616 41.7041 40.6605 41.5225 40.7721 41.3469L50.4029 48.4012ZM23.4865 20.3961C26.2666 20.4766 31.0721 21.1046 34.7935 24.1699C40.2789 28.6874 42.0767 36.0316 38.8061 40.5388C38.674 40.7184 38.5314 40.8895 38.3793 41.0512C36.3949 43.1562 32.7908 43.7769 30.1774 42.4697C27.3973 41.0775 26.0998 37.7633 26.5281 33.139C27.1189 26.6922 25.0893 22.5758 23.4865 20.3961ZM42.0597 47.1247C40.6777 46.2571 39.3139 45.3586 37.9694 44.4298C38.2012 44.2629 38.4062 44.0638 38.621 43.8764C38.6068 43.8881 38.597 43.9042 38.5842 43.9145L42.0597 47.1247ZM17.6535 23.3912C18.8322 23.3707 20.7785 23.3985 22.9805 23.6239C23.649 24.9751 24.2398 26.7581 24.4646 29.0095C22.3629 29.3462 20.6046 29.1851 19.2138 28.8441C18.5999 27.0567 18.079 25.2364 17.6535 23.3912ZM16.4083 30.1586C18.1665 30.9681 20.9467 31.7337 24.5621 31.1994C24.555 31.7542 24.531 32.3266 24.4745 32.9253C23.8837 39.3399 26.244 42.3921 28.2581 43.8149C27.7606 43.6788 27.2687 43.5119 26.7783 43.3187C25.7445 42.5656 24.6293 41.9402 23.4554 41.4552C23.1982 41.2664 22.9367 41.0922 22.6865 40.8843C18.9707 37.8234 17.1842 33.0117 16.4083 30.1586ZM29.9103 46.3606C30.8573 46.4689 31.7986 46.4704 32.7258 46.3782C33.7743 48.1446 34.9196 49.8474 36.156 51.4782L32.1534 51.3055C31.7816 49.5009 31.0142 47.809 29.9103 46.3606ZM3.82071 51.0684C5.33773 50.0879 6.90565 49.1946 8.51738 48.3924C9.74137 49.1975 11.1039 50.4096 12.3816 52.2292C10.735 53.6521 9.14351 54.4631 7.78383 54.9183C6.39548 53.7114 5.07244 52.4261 3.82071 51.0684ZM16.5581 63.4043C11.8911 62.7763 8.03966 59.5997 5.99873 57.565C7.90256 57.3103 10.6615 56.4715 13.5151 54.059C13.778 54.5377 14.0296 55.0442 14.2713 55.5888C16.8422 61.4296 20.3403 62.7807 22.7586 62.9212C20.8364 63.5112 18.7206 63.6956 16.5581 63.4043ZM30.1421 55.0749V55.0779C29.4439 57.9587 26.6426 60.44 23.7649 60.724C20.7036 61.0255 17.9955 58.8751 16.1397 54.6621C13.5504 48.7965 9.829 46.3533 7.3994 45.3417C9.83041 43.9086 14.2684 41.8578 18.9439 42.4843C20.1863 42.6512 21.3664 42.9659 22.4675 43.3963C23.5586 44.1736 24.7034 44.8133 25.8794 45.2978C28.8941 47.5858 30.6622 50.9395 30.2637 54.4074C30.2354 54.6314 30.1972 54.8539 30.1421 55.0749ZM34.3808 65.3849L27.5259 66.6306C29.4284 64.5139 33.3533 61.0651 40.2379 58.2413L41.6781 57.6528L34.3808 65.3849ZM42.0965 57.2078L32.2113 55.3941C32.2268 55.3004 32.2495 55.2067 32.2622 55.113L32.2834 54.8276C32.289 54.7749 32.3088 54.7236 32.3116 54.6724C32.3851 54.0341 32.3823 53.4018 32.3427 52.7723L39.2542 53.0753L38.204 51.7974C36.6663 49.9295 35.332 47.9518 34.2112 46.1103C35.0532 45.9216 35.8709 45.6318 36.6479 45.2466C40.0169 47.6068 43.5065 49.7769 47.1013 51.7476L47.1988 51.8003L42.0965 57.2078ZM82.3284 79.031L76.9165 84.7693L75.1696 82.9073L80.5843 77.169L82.3284 79.031ZM74.8558 64.2006L78.0472 67.6027L66.213 80.2138L63.023 76.8118L74.8558 64.2006ZM51.1944 47.561L50.7294 46.9125C47.008 41.7026 45.5239 36.5469 45.0801 32.2095C46.1128 32.6619 47.2053 32.9506 48.321 33.0658C49.8772 37.0051 52.0015 40.9926 54.824 43.5046L54.9314 43.6012L51.1944 47.561ZM55.8755 42.6014L51.9944 32.6911C52.311 32.5959 52.6248 32.4905 52.9329 32.3602L53.1802 32.2417C53.2255 32.2212 53.2763 32.2124 53.323 32.1919C53.8435 31.9612 54.3434 31.6834 54.8169 31.3619L59.2125 39.0647L55.8755 42.6014ZM60.3418 37.8644C61.2902 31.7527 64.0929 25.7656 65.9148 22.3621L64.6314 33.3161L60.3418 37.8644Z" fill="#323232"/>
</svg>
