<svg width="38" height="37" viewBox="0 0 38 37" fill="none" xmlns="http://www.w3.org/2000/svg">
<path id="Vector" opacity="0.3" d="M35.8118 14.0346C35.236 12.2833 33.9887 10.832 32.3439 9.99948C30.699 9.16691 28.7911 9.02104 27.0388 9.5939C26.4133 9.77115 25.8194 10.0452 25.2788 10.4062C25.4538 9.78021 25.5448 9.13372 25.5495 8.48373C25.5495 6.63095 24.8135 4.85405 23.5034 3.54393C22.1933 2.23382 20.4164 1.4978 18.5636 1.4978C16.7108 1.4978 14.9339 2.23382 13.6238 3.54393C12.3137 4.85405 11.5777 6.63095 11.5777 8.48373C11.5824 9.13372 11.6734 9.78021 11.8484 10.4062C11.3095 10.0357 10.7155 9.75247 10.0884 9.56682C9.22258 9.28413 8.30954 9.17475 7.40142 9.24493C6.4933 9.3151 5.6079 9.56346 4.79576 9.97581C3.98363 10.3882 3.26066 10.9564 2.66815 11.6482C2.07563 12.34 1.62517 13.1416 1.34248 14.0075C1.05979 14.8733 0.950411 15.7864 1.02059 16.6945C1.09076 17.6026 1.33911 18.488 1.75147 19.3002C2.16382 20.1123 2.7321 20.8353 3.42386 21.4278C4.11561 22.0203 4.9173 22.4708 5.78315 22.7534C6.41735 22.9407 7.07205 23.0498 7.73271 23.0784C7.22804 23.4831 6.77354 23.9467 6.37885 24.4593C5.83975 25.1932 5.45177 26.0269 5.23743 26.912C5.02309 27.7971 4.98665 28.7159 5.13023 29.6152C5.27381 30.5144 5.59455 31.3762 6.07384 32.1506C6.55312 32.9249 7.18141 33.5963 7.92225 34.1259C9.41931 35.2077 11.2827 35.6553 13.1078 35.3714C14.9329 35.0875 16.5724 34.095 17.6701 32.6096C18.051 32.0787 18.352 31.4948 18.5636 30.8766C18.7836 31.4964 19.0938 32.0803 19.4842 32.6096C20.5819 34.095 22.2213 35.0875 24.0465 35.3714C25.8716 35.6553 27.735 35.2077 29.232 34.1259C29.9729 33.5963 30.6012 32.9249 31.0805 32.1506C31.5597 31.3762 31.8805 30.5144 32.0241 29.6152C32.1676 28.7159 32.1312 27.7971 31.9169 26.912C31.7025 26.0269 31.3145 25.1932 30.7754 24.4593C30.3808 23.9467 29.9262 23.4831 29.4216 23.0784C30.0731 23.0476 30.7186 22.9385 31.3441 22.7534C32.2116 22.4769 33.0159 22.0315 33.7107 21.4429C34.4054 20.8542 34.9769 20.134 35.3921 19.3236C35.8074 18.5133 36.0582 17.6287 36.1303 16.721C36.2023 15.8133 36.0941 14.9003 35.8118 14.0346Z" stroke="#323232" stroke-width="2" stroke-linecap="round" stroke-linejoin="round"/>
</svg>
