<svg width="37" height="35" viewBox="0 0 37 35" fill="none" xmlns="http://www.w3.org/2000/svg">
<g id="Group">
<path id="Vector" d="M34.8308 13.1835C34.2712 11.4815 33.0591 10.0712 31.4606 9.26208C29.8621 8.45298 28.0079 8.31122 26.305 8.86793C25.6971 9.04019 25.12 9.30656 24.5946 9.65736C24.7647 9.049 24.8531 8.42073 24.8577 7.78905C24.8577 5.98848 24.1424 4.26166 22.8692 2.98847C21.5961 1.71527 19.8692 1 18.0687 1C16.2681 1 14.5413 1.71527 13.2681 2.98847C11.9949 4.26166 11.2796 5.98848 11.2796 7.78905C11.2842 8.42073 11.3727 9.049 11.5428 9.65736C11.019 9.29732 10.4418 9.02204 9.83233 8.84162C8.99089 8.5669 8.10357 8.4606 7.22105 8.5288C6.33852 8.59699 5.47807 8.83835 4.68882 9.23908C3.89957 9.63982 3.19698 10.1921 2.62116 10.8643C2.04535 11.5366 1.60758 12.3157 1.33286 13.1571C1.05814 13.9986 0.951839 14.8859 1.02004 15.7684C1.08823 16.651 1.32959 17.5114 1.73032 18.3007C2.13105 19.0899 2.68332 19.7925 3.35558 20.3683C4.02784 20.9441 4.80694 21.3819 5.64838 21.6566C6.26471 21.8386 6.90096 21.9446 7.543 21.9724C7.05256 22.3657 6.61086 22.8163 6.22729 23.3144C5.70339 24.0277 5.32634 24.8379 5.11804 25.698C4.90974 26.5581 4.87433 27.451 5.01386 28.325C5.1534 29.1989 5.4651 30.0364 5.93088 30.7889C6.39666 31.5414 7.00724 32.1939 7.7272 32.7086C9.18207 33.7599 10.993 34.1949 12.7666 33.919C14.5403 33.6431 16.1335 32.6786 17.2003 31.235C17.5705 30.719 17.863 30.1516 18.0687 29.5509C18.2825 30.1532 18.5839 30.7206 18.9633 31.235C20.0301 32.6786 21.6233 33.6431 23.397 33.919C25.1707 34.1949 26.9816 33.7599 28.4364 32.7086C29.1564 32.1939 29.767 31.5414 30.2328 30.7889C30.6985 30.0364 31.0102 29.1989 31.1498 28.325C31.2893 27.451 31.2539 26.5581 31.0456 25.698C30.8373 24.8379 30.4603 24.0277 29.9364 23.3144C29.5528 22.8163 29.1111 22.3657 28.6206 21.9724C29.2538 21.9425 29.8811 21.8365 30.4889 21.6566C31.3321 21.3879 32.1137 20.955 32.7889 20.383C33.464 19.8109 34.0194 19.111 34.4229 18.3235C34.8265 17.5359 35.0703 16.6763 35.1403 15.7942C35.2103 14.9121 35.1051 14.0248 34.8308 13.1835Z" fill="white" stroke="#B35FA2" stroke-width="2" stroke-linecap="round" stroke-linejoin="round"/>
</g>
</svg>
