<svg width="88" height="79" viewBox="0 0 88 79" fill="none" xmlns="http://www.w3.org/2000/svg">
<g id="Group">
<path id="Vector" d="M2.78638 18.0695V16C2.23752 16 1.71115 16.218 1.32305 16.6061C0.934951 16.9942 0.716919 17.5206 0.716919 18.0695H2.78638ZM48.3145 18.0695H50.384C50.384 17.5206 50.166 16.9942 49.7779 16.6061C49.3898 16.218 48.8634 16 48.3145 16V18.0695ZM48.3145 26.3473V24.2778C47.7657 24.2778 47.2393 24.4959 46.8512 24.884C46.4631 25.2721 46.2451 25.7984 46.2451 26.3473H48.3145ZM2.78638 20.1389H48.3145V16H2.78638V20.1389ZM46.2451 18.0695V67.7365H50.384V18.0695H46.2451ZM4.85584 59.4587V18.0695H0.716919V59.4587H4.85584ZM48.3145 28.4168H69.0091V24.2778H48.3145V28.4168ZM83.4954 42.903V59.4587H87.6343V42.903H83.4954ZM50.384 67.7365V26.3473H46.2451V67.7365H50.384ZM73.3964 72.1238C72.2323 73.2864 70.6544 73.9394 69.0091 73.9394C67.3639 73.9394 65.7859 73.2864 64.6219 72.1238L61.6915 75.0541C62.6524 76.0153 63.7932 76.7777 65.0488 77.2979C66.3043 77.818 67.6501 78.0858 69.0091 78.0858C70.3682 78.0858 71.7139 77.818 72.9695 77.2979C74.2251 76.7777 75.3659 76.0153 76.3267 75.0541L73.3964 72.1238ZM64.6219 63.3493C65.7859 62.1866 67.3639 61.5336 69.0091 61.5336C70.6544 61.5336 72.2323 62.1866 73.3964 63.3493L76.3267 60.4189C75.3659 59.4578 74.2251 58.6954 72.9695 58.1752C71.7139 57.655 70.3682 57.3873 69.0091 57.3873C67.6501 57.3873 66.3043 57.655 65.0488 58.1752C63.7932 58.6954 62.6524 59.4578 61.6915 60.4189L64.6219 63.3493ZM23.7293 72.1238C22.5652 73.2864 20.9873 73.9394 19.3421 73.9394C17.6968 73.9394 16.1189 73.2864 14.9548 72.1238L12.0245 75.0541C12.9853 76.0153 14.1261 76.7777 15.3817 77.2979C16.6373 77.818 17.983 78.0858 19.3421 78.0858C20.7011 78.0858 22.0469 77.818 23.3024 77.2979C24.558 76.7777 25.6988 76.0153 26.6597 75.0541L23.7293 72.1238ZM14.9548 63.3493C16.1189 62.1866 17.6968 61.5336 19.3421 61.5336C20.9873 61.5336 22.5652 62.1866 23.7293 63.3493L26.6597 60.4189C25.6988 59.4578 24.558 58.6954 23.3024 58.1752C22.0469 57.655 20.7011 57.3873 19.3421 57.3873C17.983 57.3873 16.6373 57.655 15.3817 58.1752C14.1261 58.6954 12.9853 59.4578 12.0245 60.4189L14.9548 63.3493ZM73.3964 63.3493C74.6132 64.5578 75.2175 66.143 75.2175 67.7365H79.3564C79.3564 65.0918 78.3465 62.4387 76.3267 60.4189L73.3964 63.3493ZM75.2175 67.7365C75.2175 69.33 74.6132 70.9152 73.3964 72.1238L76.3267 75.0541C77.2886 74.0939 78.0514 72.9532 78.5713 71.6975C79.0912 70.4417 79.358 69.0956 79.3564 67.7365H75.2175ZM60.7313 65.6671H48.3145V69.806H60.7313V65.6671ZM64.6219 72.1238C64.0441 71.5486 63.5858 70.8649 63.2732 70.112C62.9607 69.3591 62.8001 68.5518 62.8007 67.7365H58.6618C58.6618 70.3813 59.6717 73.0343 61.6915 75.0541L64.6219 72.1238ZM62.8007 67.7365C62.8007 66.143 63.405 64.5578 64.6219 63.3493L61.6915 60.4189C60.7296 61.3791 59.9669 62.5198 59.4469 63.7756C58.927 65.0313 58.6602 66.3774 58.6618 67.7365H62.8007ZM14.9548 72.1238C14.377 71.5486 13.9187 70.8649 13.6062 70.112C13.2936 69.3591 13.133 68.5518 13.1337 67.7365H8.99476C8.99476 70.3813 10.0047 73.0343 12.0245 75.0541L14.9548 72.1238ZM13.1337 67.7365C13.1337 66.143 13.738 64.5578 14.9548 63.3493L12.0245 60.4189C11.0626 61.3791 10.2998 62.5198 9.77988 63.7756C9.25996 65.0313 8.99315 66.3774 8.99476 67.7365H13.1337ZM48.3145 65.6671H27.6199V69.806H48.3145V65.6671ZM23.7293 63.3493C24.9462 64.5578 25.5504 66.143 25.5504 67.7365H29.6894C29.6894 65.0918 28.6795 62.4387 26.6597 60.4189L23.7293 63.3493ZM25.5504 67.7365C25.5504 69.33 24.9462 70.9152 23.7293 72.1238L26.6597 75.0541C27.6216 74.0939 28.3843 72.9532 28.9043 71.6975C29.4242 70.4417 29.691 69.0956 29.6894 67.7365H25.5504ZM83.4954 59.4587C83.4954 61.1052 82.8413 62.6844 81.677 63.8487C80.5127 65.013 78.9335 65.6671 77.287 65.6671V69.806C80.0312 69.806 82.6631 68.7158 84.6036 66.7753C86.5441 64.8348 87.6343 62.203 87.6343 59.4587H83.4954ZM69.0091 28.4168C72.8511 28.4168 76.5357 29.943 79.2524 32.6597C81.9691 35.3764 83.4954 39.061 83.4954 42.903H87.6343C87.6343 37.9633 85.672 33.2259 82.1791 29.733C78.6862 26.2401 73.9488 24.2778 69.0091 24.2778V28.4168ZM0.716919 59.4587C0.716919 62.203 1.80708 64.8348 3.74757 66.7753C5.68807 68.7158 8.31995 69.806 11.0642 69.806V65.6671C9.41766 65.6671 7.83853 65.013 6.67423 63.8487C5.50994 62.6844 4.85584 61.1052 4.85584 59.4587H0.716919Z" fill="#323232"/>
<path id="Vector_2" d="M25.5497 13.9304C25.5497 10.6373 24.2415 7.47905 21.9129 5.15046C19.5843 2.82186 16.4261 1.51367 13.1329 1.51367C12.0352 1.51367 10.9825 1.94974 10.2063 2.72593C9.43008 3.50213 8.99402 4.55488 8.99402 5.65259C8.99402 8.94573 10.3022 12.104 12.6308 14.4326C14.9594 16.7612 18.1177 18.0694 21.4108 18.0694H25.5497M25.5497 13.9304V18.0694M25.5497 13.9304C25.5497 10.6373 26.8579 7.47905 29.1865 5.15046C31.5151 2.82186 34.6733 1.51367 37.9665 1.51367C39.0642 1.51367 40.1169 1.94974 40.8931 2.72593C41.6693 3.50213 42.1054 4.55488 42.1054 5.65259C42.1054 8.94573 40.7972 12.104 38.4686 14.4326C36.14 16.7612 32.9818 18.0694 29.6886 18.0694H25.5497" stroke="#323232" stroke-width="1.5" stroke-linejoin="round"/>
</g>
</svg>
