<svg width="76" height="79" viewBox="0 0 76 79" fill="none" xmlns="http://www.w3.org/2000/svg">
<g id="Group">
<path id="Vector" d="M38.1004 28.2215C33.8543 28.2215 30.4151 30.8038 30.4151 33.9855C30.4151 37.1672 33.8543 39.7494 38.1004 39.7494C42.3465 39.7494 45.7856 42.3317 45.7856 45.5134C45.7856 48.6951 42.3465 51.2773 38.1004 51.2773M38.1004 28.2215C41.4435 28.2215 44.2947 29.8239 45.3476 32.0642M38.1004 28.2215V24.3789M38.1004 51.2773C34.7573 51.2773 31.906 49.675 30.8532 47.4347M38.1004 51.2773V55.12" stroke="#323232" stroke-width="1.5" stroke-linecap="round" stroke-linejoin="round"/>
<path id="Vector_2" d="M38.0922 1.32031C26.5335 1.32031 19.0404 9.07859 10.1793 11.9068C6.57491 13.0596 4.77272 13.6321 4.04262 14.4429C3.31251 15.2499 3.10117 16.4372 2.67464 18.8043C-1.8981 44.1503 8.09275 67.5827 31.9171 76.7051C34.4724 77.685 35.752 78.173 38.1037 78.173C40.4554 78.173 41.7388 77.6811 44.298 76.7012C68.1185 67.5827 78.0978 44.1503 73.5251 18.8043C73.0986 16.4372 72.8834 15.2499 72.1533 14.4391C71.4232 13.6283 69.6248 13.0557 66.0204 11.9068C57.1555 9.07859 49.6508 1.32031 38.0922 1.32031Z" stroke="#323232" stroke-width="1.5" stroke-linecap="round" stroke-linejoin="round"/>
</g>
</svg>
