<svg width="79" height="79" viewBox="0 0 79 79" fill="none" xmlns="http://www.w3.org/2000/svg">
<g id="Group">
<path id="Vector" d="M42.7499 30.6267C50.7418 30.6267 57.2205 24.148 57.2205 16.1561C57.2205 8.16424 50.7418 1.68555 42.7499 1.68555C34.7581 1.68555 28.2794 8.16424 28.2794 16.1561C28.2794 24.148 34.7581 30.6267 42.7499 30.6267Z" stroke="#323232" stroke-width="1.5" stroke-linecap="round" stroke-linejoin="round"/>
<path id="Vector_2" d="M1.40503 78.1732C1.40503 59.9052 18.0648 45.0977 38.6151 45.0977M69.6234 57.501V51.2993C69.6234 49.6545 68.97 48.0771 67.807 46.9141C66.6439 45.751 65.0665 45.0977 63.4217 45.0977C61.777 45.0977 60.1995 45.751 59.0365 46.9141C57.8735 48.0771 57.2201 49.6545 57.2201 51.2993V57.501M48.9512 57.501H77.8923V78.1732H48.9512V57.501Z" stroke="#323232" stroke-width="1.5" stroke-linecap="round" stroke-linejoin="round"/>
</g>
</svg>
